<!-- icon666.com - MILLIONS vector ICONS FREE --><svg viewBox="0 0 60 60" xmlns="http://www.w3.org/2000/svg"><g id="Page-1" fill="none" fill-rule="evenodd"><g id="018---Search-Profile" fill-rule="nonzero" transform="translate(-1)"><path id="Shape" d="m60 24c0 12.7025492-10.2974508 23-23 23s-23-10.2974508-23-23 10.2974508-23 23-23c6.0999793 0 11.9501193 2.42320733 16.263456 6.73654403 4.3133367 4.31333667 6.736544 10.16347667 6.736544 16.26345597z" fill="#e8edfc"></path><path id="Shape" d="m37 1c-.5 0-1 .022-1.5.054 12.0797835.78527448 21.482024 10.8017183 21.5023375 22.9069821.0203135 12.1052639-9.3482575 22.1532065-21.4253375 22.9790179.472.029.944.06 1.423.06 12.7025491-.0000002 22.9999997-10.2974509 22.9999997-23s-10.2974506-22.99999981-22.9999997-23z" fill="#cad9fc"></path><circle id="Oval" cx="37" cy="24" fill="#a4c2f7" r="19"></circle><path id="Shape" d="m37 5c-.506 0-1 .037-1.5.076 9.8781364.77398056 17.4992499 9.0155882 17.4992499 18.924s-7.6211135 18.1500194-17.4992499 18.924c.5.039.994.076 1.5.076 10.4934102 0 19-8.5065898 19-19s-8.5065898-19-19-19z" fill="#7facfa"></path><g fill="#e8edfc"><rect id="Rectangle-path" height="16" rx="1" transform="matrix(.707 .707 -.707 .707 38.427 6.502)" width="8" x="7.365" y="41.636" fill="#e8edfc"></rect><path id="Shape" d="m23 42.24-3.86 3.86-4.24-4.24 3.86-3.86c1.2222555 1.5923003 2.6476997 3.0177445 4.24 4.24z" fill="#e8edfc"></path><path id="Shape" d="m1.29259839 54.7074069h6v1c0 1.6568542-1.34314575 3-3 3s-3-1.3431458-3-3z" transform="matrix(.707 .707 -.707 .707 41.355 13.574)" fill="#e8edfc"></path></g><path id="Shape" d="m47.79 21.11c-.87-3.12-6.83-4.04-9.98-1.3s-8.55 3-10.81.57c-3.76-3.28-3-10.85-3-10.85 3 6 16 1 21 4 2.84 1.71 3.1 5.03 2.79 7.58z" fill="#cad9fc"></path><path id="Shape" d="m50 27.53c0 1.6568542-1.3431458 3-3 3-.1882886.0003363-.3760566-.0197817-.56-.06-.9467521 2.9442877-3.1687681 5.3058682-6.05 6.43-2.181952.8399727-4.598048.8399727-6.78 0-2.8812319-1.1241318-5.1032479-3.4857123-6.05-6.43-.1839434.0402183-.3717114.0603363-.56.06-1.6568542 0-3-1.3431458-3-3s1.3431458-3 3-3v-4.15c2.26 2.43 7.67 2.18 10.81-.57s9.11-1.82 9.98 1.3c-.1391319 1.1651705-.4040088 2.3118525-.79 3.42 1.6568542 0 3 1.3431458 3 3z" fill="#e8edfc"></path><path id="Shape" d="m47 24.53c.3859912-1.1081475.6508681-2.2548295.79-3.42-.621-2.227-3.833-3.324-6.768-2.778 1.831.345 3.36 1.316 3.768 2.778-.1391319 1.1651705-.4040088 2.3118525-.79 3.42 1.6568542 0 3 1.3431458 3 3s-1.3431458 3-3 3c-.1882886.0003363-.3760566-.0197817-.56-.06-.9467521 2.9442877-3.1687681 5.3058682-6.05 6.43-.6107945.232261-1.2442571.3998437-1.89.5 1.6453034.2761549 3.3346328.1034219 4.89-.5 2.8812319-1.1241318 5.1032479-3.4857123 6.05-6.43.1839434.0402183.3717114.0603363.56.06 1.6568542 0 3-1.3431458 3-3s-1.3431458-3-3-3z" fill="#cad9fc"></path><path id="Shape" d="m40.55 42.66c-2.3449504.4534096-4.7550496.4534096-7.1 0 .7774094-1.8312075.8345554-3.8884602.16-5.76 2.181952.8399727 4.598048.8399727 6.78 0-.6745554 1.8715398-.6174094 3.9287925.16 5.76z" fill="#cad9fc"></path><path id="Shape" d="m5.879 58.121c-1.17114581-1.1714996-1.17114581-3.0705004 0-4.242l.707-.707c-.18777704-.1875683-.29328666-.4420908-.29328666-.7075s.10550962-.5199317.29328666-.7075l9.9-9.9c.3904999-.3903819 1.0235001-.3903819 1.414 0l3.86-3.857c-11.176-14.551-1.486-35.83 16.74-36.946-.5-.032-1-.054-1.5-.054-19.188 0-29.719 22.053-18.24 37l-3.86 3.859c-.3904999-.3903819-1.0235001-.3903819-1.414 0l-9.9 9.9c-.18777704.1875683-.29328666.4420908-.29328666.7075s.10550962.5199317.29328666.7075l-.707.707c-1.06398663 1.0632029-1.17361487 2.7509039-.25611425 3.9428185s2.57707727 1.517734 3.87711425.7611815c-.22646452-.1267456-.43525827-.2827525-.621-.464z" fill="#fff"></path><path id="Shape" d="m14.458 15.825 1.88.682c-.8660041 2.4041693-1.3184065 4.93769-1.338 7.493h-2c.0198201-2.7878784.5128254-5.5521573 1.458-8.175z" fill="#fff"></path><path id="Shape" d="m14.384 21.017c-.5522847.0027614-1.0022386-.4427153-1.005-.995s.4427153-1.0022386.995-1.005h.01c.5522847 0 1 .4477153 1 1s-.4477153 1-1 1z" fill="#428dff" style="fill: rgb(58, 87, 131);"></path><path id="Shape" d="m37 0c-2.4477323.03518314-4.8788094.40906557-7.224 1.111-2.3277884.75961105-4.5325798 1.8540904-6.545 3.249-2.0063484 1.40395651-3.7825104 3.11096121-5.265 5.06-.353.5-.761.959-1.067 1.489l-.952 1.568c-.5760784 1.0787999-1.0736995 2.1976952-1.489 3.348-.1009932.2486371-.0936535.5281389.0202499.7711329.1139034.2429939.3240373.4274359.5797501.5088671.5189909.1656447 1.0781034-.0956229 1.284-.6.3785382-1.0532506.8323768-2.0778966 1.358-3.066l.874-1.439c.278-.487.657-.907.979-1.365 1.3590038-1.7858797 2.9874601-3.34956214 4.827-4.635 1.8458689-1.27715972 3.8668006-2.28055232 6-2.979 2.1495982-.64144308 4.3770278-.98497868 6.62-1.021 12.1502645 0 22 9.8497355 22 22s-9.8497355 22-22 22-22-9.8497355-22-22c0-.5522847-.4477153-1-1-1s-1 .4477153-1 1c-.0047477 4.9843723 1.5513908 9.8451197 4.45 13.9l-2.745 2.746c-.6873177-.1867186-1.42203.0077305-1.927.51l-4.948 4.944-4.951 4.95c-.51061233.4997266-.70705328 1.2386822-.512 1.926l-.2.2c-1.14141718 1.1449931-1.48133866 2.8645184-.86144337 4.3576937.61989529 1.4931752 2.07770515 2.466368 3.69444337 2.4663063 1.06141637.0029858 2.07985105-.4190812 2.828-1.172l.195-.2c.16672457.046817.33884229.0716934.512.074.53018141.0017974 1.03889043-.209324 1.412-.586l9.9-9.9c.4993661-.5062225.6923992-1.2395199.507-1.926l2.747-2.745c8.4471396 6.0096316 19.7986153 5.9146328 28.1439914-.2355328 8.345376-6.1501657 11.7971756-16.9645129 8.558131-26.8122755-3.2390445-9.8477627-12.4363573-16.50166861-22.8031224-16.4971917zm-33.414 57.414c-.78076388-.7809997-.78076388-2.0470003 0-2.828l2.828 2.828c-.791167.755814-2.036833.755814-2.828 0zm4.95-.706-4.243-4.244 1.414-1.414 2.121 2.121c.39237889.3789722 1.01608478.3735524 1.40181858-.0121814.38573379-.3857338.39115363-1.0094397.01218142-1.4018186l-2.121-2.121 1.414-1.414 2.122 2.121c.2510745.2599566.6228779.3642126.9725073.2726972.3496295-.0915155.6226744-.3645604.7141899-.7141899.0915154-.3496294-.0127406-.7214328-.2726972-.9725073l-2.121-2.121 1.414-1.415 2.121 2.122c.2527654.2527654.621179.3514816.966463.258963s.6149814-.362216.7075-.7075-.0061976-.7136976-.258963-.966463l-2.121-2.122 1.414-1.414 4.24 4.24zm10.6-12.023-2.826-2.826 2.372-2.372c.8618645 1.0188647 1.8071353 1.9641355 2.826 2.826z" fill="#428dff" style="fill: rgb(58, 87, 131);"></path><path id="Shape" d="m20.68 14.229c-.2342923-.1246557-.5085273-.1510661-.762303-.0734141s-.4662762.2529969-.590697.4874141c-4.2032421 7.9402771-2.5960099 17.7089132 3.9296258 23.8839697s16.3680589 7.2409615 24.0643764 2.6061 11.3575876-13.8329346 8.9516758-22.4889633c-2.4059118-8.65602865-10.2885118-14.64552492-19.272678-14.6441064-2.9103482-.00653246-5.7863202.62889244-8.423 1.861-.3238613.15112334-.5424981.463545-.573552.81957875-.031054.35603374.1301927.70158959.423.9065.2928073.2049104.6726907.23804459.996552.08692125 2.3717516-1.10864659 4.958935-1.6802376 7.577-1.674 9.1288022-.00542519 16.8145004 6.8272391 17.878157 15.8938643s-4.8319663 17.4925904-13.714157 19.6001357c-.3377189-1.2650693-.3190302-2.5988893.054-3.854 2.6889325-1.1893042 4.8063209-3.3827751 5.9-6.112 1.9339578-.0555489 3.5509361-1.4873089 3.8401977-3.4003186s-.8321215-3.7588307-2.6631977-4.3836814c.681-2.49 1.708-8.38-2.778-11.072-2.36-1.415-5.955-1.26-9.759-1.1-4.626.2-9.412.406-10.861-2.494-.1987834-.39869392-.6373345-.61780756-1.0755122-.53735906s-.7702935.44105494-.8144878.88435906c-.037.37-.716 7.717 3 11.4v2.826c-1.9301688.4970711-3.1998799 2.3392973-2.9774542 4.3199936.2224258 1.9806963 1.8691116 3.4954206 3.8614542 3.5520064 1.0936791 2.7292249 3.2110675 4.9226958 5.9 6.112.3730302 1.2551107.3917189 2.5889307.054 3.854-5.417644-1.2808621-9.9362741-4.9992853-12.2359626-10.0690888-2.2996885-5.0698034-2.1209655-10.9189698.4839626-15.8389112.2590707-.4874132.0742152-1.0925573-.413-1.352zm7.829 15.927c-.1611813-.4862217-.663715-.772027-1.164-.662-.1133814.0243051-.2290434.0363742-.345.036-1.1045695 0-2-.8954305-2-2s.8954305-2 2-2c.5522847 0 1-.4477153 1-1v-2.319c.2233642.1007407.4516524.190187.684.268.5246705.174522 1.091478-.1093295 1.266-.634s-.1093295-1.091478-.634-1.266c-.5921379-.1960601-1.1401261-.5062357-1.613-.913-.0290343-.0284878-.0597565-.0552027-.092-.08-2.016-1.806-2.543-5.155-2.648-7.467 2.622 1.809 6.8 1.629 10.879 1.454 3.345-.145 6.8-.293 8.643.812 4.222 2.533 1.605 9.72 1.578 9.793-.1155694.3073092-.0729267.6517712.1140922.9216214.187019.2698502.4945861.430707.8229078.4303786 1.1045695 0 2 .8954305 2 2s-.8954305 2-2 2c-.1159566.0003742-.2316186-.0116949-.345-.036-.500285-.110027-1.0028187.1757783-1.164.662-1.0984742 3.7759651-4.5584998 6.3728648-8.491 6.3728648s-7.3925258-2.5968997-8.491-6.3728648zm6.451 8.166c1.3458619.277329 2.7341381.277329 4.08 0-.1957827 1.1745573-.1429788 2.3771235.155 3.53-1.4566805.1973347-2.9333195.1973347-4.39 0 .2979788-1.1528765.3507827-2.3554427.155-3.53z" fill="#428dff" style="fill: rgb(58, 87, 131);"></path></g></g></svg>